<?xml version="1.0" encoding="utf-8"?>
<!-- Generator: Adobe Illustrator 22.0.1, SVG Export Plug-In . SVG Version: 6.00 Build 0)  -->
<svg version="1.1" id="Layer_1" xmlns="http://www.w3.org/2000/svg" xmlns:xlink="http://www.w3.org/1999/xlink" x="0px" y="0px"
	 viewBox="0 0 48 48" enable-background="new 0 0 48 48" xml:space="preserve">
<path fill="#0079EF" d="M24,1C11.3,1,1,11.3,1,24c0,12.7,10.3,23,23,23c12.7,0,23-10.3,23-23C47,11.3,36.7,1,24,1z M44.9,23H41v2
	h3.9c-0.1,2.1-0.5,4.1-1.2,6H31c0-3.5-2.6-6.4-6-6.9V13h-2v11.1c-3.4,0.5-6,3.4-6,6.9H4.2c-0.7-1.9-1.1-3.9-1.2-6H7v-2H3.1
	c0.2-4.9,2.1-9.3,5.1-12.7l2.1,2.1l1.4-1.4L9.5,8.8c3.5-3.4,8.3-5.5,13.5-5.8V7h2V3.1c5,0.2,9.6,2.3,13.1,5.4L35.6,11l1.4,1.4
	l2.5-2.5C42.7,13.4,44.7,18,44.9,23z M24,26c2.8,0,5,2.2,5,5H19C19,28.2,21.2,26,24,26z M24,45c-8.4,0-15.6-4.9-18.9-12h37.9
	C39.6,40.1,32.4,45,24,45z"/>
</svg>
