<svg xmlns="http://www.w3.org/2000/svg" viewBox="0 0 16.96 16.82"><defs><style>.cls-1{fill:#0078ef;}</style></defs><title>Cable 2</title><g id="Layer_2" data-name="Layer 2"><g id="NEW_icons" data-name="NEW icons"><path class="cls-1" d="M1.45,4.31A.33.33,0,0,0,1.78,4V2.3a.33.33,0,1,0-.66,0V4A.33.33,0,0,0,1.45,4.31Z"/><path class="cls-1" d="M.33.84A.33.33,0,0,0,0,1.17V5.11a.33.33,0,1,0,.66,0V1.17A.33.33,0,0,0,.33.84Z"/><path class="cls-1" d="M14.95,12.09a.33.33,0,0,0-.33.33v2.25a.33.33,0,1,0,.66,0V12.42A.33.33,0,0,0,14.95,12.09Z"/><path class="cls-1" d="M16.64,11.53a.33.33,0,0,0-.33.33v3.37a.33.33,0,1,0,.66,0V11.86A.33.33,0,0,0,16.64,11.53Z"/><path class="cls-1" d="M14,2.81H10.22V1A.33.33,0,0,0,9.92.71L3.17,0a.32.32,0,0,0-.25.08.33.33,0,0,0-.11.24V6a.33.33,0,0,0,.33.33h0l6.75-.7a.33.33,0,0,0,.29-.33V3.47H14a1.12,1.12,0,0,1,1.12.84.89.89,0,0,1-.55,1L1.86,11A1.56,1.56,0,0,0,1,12.79a1.78,1.78,0,0,0,1.75,1.36H6.19v1.64a.33.33,0,0,0,.3.33l5.59.54s0,0,.06,0l0,0,1.62.16h0a.33.33,0,0,0,.33-.33V10.87a.33.33,0,0,0-.11-.24.32.32,0,0,0-.25-.08l-7.31.7a.33.33,0,0,0-.3.33V13.5H2.71a1.13,1.13,0,0,1-1.12-.85.9.9,0,0,1,.55-1.05L14.81,5.93a1.54,1.54,0,0,0,.91-1.77A1.77,1.77,0,0,0,14,2.81Zm-10,2.73-.47,0V.69l.47,0Zm8.53,5.79,1-.1v4.9l-1-.1Z"/></g></g></svg>
