<svg xmlns="http://www.w3.org/2000/svg" viewBox="0 0 17.93 15.23"><defs><style>.cls-1{fill:#0078ef;}</style></defs><title>Asset 353</title><g id="Layer_2" data-name="Layer 2"><g id="NEW_icons" data-name="NEW icons"><path class="cls-1" d="M10.4,10.23a.32.32,0,0,0-.18-.17h0L5.67,8.26a.33.33,0,0,0-.24.61l3.81,1.5-9,3.91a.33.33,0,0,0,.13.63l.13,0L9.5,11,8,14.79a.33.33,0,0,0,.18.42l.12,0a.33.33,0,0,0,.3-.21l1.8-4.55h0A.33.33,0,0,0,10.4,10.23Z"/><path class="cls-1" d="M9.24,4.86,5.44,6.38A.33.33,0,0,0,5.56,7l.12,0,4.54-1.82,0,0A.31.31,0,0,0,10.4,5a.33.33,0,0,0,0-.25L8.59.21A.32.32,0,0,0,8.16,0,.33.33,0,0,0,8,.45L9.5,4.25.46.38A.33.33,0,0,0,.2,1Z"/><path class="cls-1" d="M15.14,4.92a2.79,2.79,0,1,0,2.79,2.79A2.79,2.79,0,0,0,15.14,4.92Z"/></g></g></svg>
