<svg xmlns="http://www.w3.org/2000/svg" viewBox="0 0 14.91 18.96"><defs><style>.cls-1{fill:#0078ef;}</style></defs><title>Doc Official</title><g id="Layer_2" data-name="Layer 2"><g id="NEW_icons" data-name="NEW icons"><path class="cls-1" d="M14.81.1a.33.33,0,0,0-.23-.1H.33A.33.33,0,0,0,0,.34V18.63A.33.33,0,0,0,.33,19H14.58a.33.33,0,0,0,.33-.33V.33A.33.33,0,0,0,14.81.1ZM13.75,17.56a.33.33,0,0,1-.33.33H1.49a.33.33,0,0,1-.33-.33V1.41a.33.33,0,0,1,.33-.33H13.42a.33.33,0,0,1,.33.33Z"/><path class="cls-1" d="M1.81,17.23H13.09V1.73H1.81ZM11,15.15H3.79a.33.33,0,1,1,0-.65H11a.33.33,0,1,1,0,.65ZM3.79,4.29H6.87a.33.33,0,1,1,0,.65H3.79a.33.33,0,1,1,0-.65Zm0,2h7.27a.33.33,0,1,1,0,.65H3.79a.33.33,0,1,1,0-.65ZM11.34,8.7A.33.33,0,0,1,11,9H3.79a.33.33,0,1,1,0-.65H11A.33.33,0,0,1,11.34,8.7ZM3.79,10.41h7.27a.33.33,0,1,1,0,.65H3.79a.33.33,0,1,1,0-.65Zm0,2h7.27a.33.33,0,1,1,0,.65H3.79a.33.33,0,1,1,0-.65Z"/></g></g></svg>
