<?xml version="1.0" encoding="utf-8"?>
<!-- Generator: Adobe Illustrator 21.1.0, SVG Export Plug-In . SVG Version: 6.00 Build 0)  -->
<svg version="1.1" id="_48-2" xmlns="http://www.w3.org/2000/svg" xmlns:xlink="http://www.w3.org/1999/xlink" x="0px" y="0px"
	 viewBox="0 0 48 48" style="enable-background:new 0 0 48 48;" xml:space="preserve">
<style type="text/css">
	.st0{fill:#0079EF;}

</style>
<title>omiLogo</title>
<path class="st0" d="M30,19.9V7.8l-6-5.7l-6,5.7v12.1L14.1,44H9v2h30v-2h-5.1L30,19.9z M24,4.9L27.3,8h-6.6L24,4.9z M28,10v9h-8v-9
	H28z M19.9,21h8.3l3.7,23H16.2L19.9,21z"/>
<path class="st0" d="M34,12.5c0.1,0,0.3,0,0.4-0.1l6-2.5c0.5-0.2,0.8-0.8,0.5-1.3c-0.2-0.5-0.8-0.8-1.3-0.5l-6,2.5
	c-0.5,0.2-0.8,0.8-0.5,1.3C33.2,12.3,33.6,12.5,34,12.5z"/>
<path class="st0" d="M44,14H34c-0.6,0-1,0.4-1,1s0.4,1,1,1h10c0.6,0,1-0.4,1-1S44.6,14,44,14z"/>
<path class="st0" d="M40.4,20.1l-6-2.5c-0.5-0.2-1.1,0-1.3,0.5c-0.2,0.5,0,1.1,0.5,1.3l6,2.5c0.5,0.2,1.1,0,1.3-0.5
	C41.1,20.9,40.9,20.3,40.4,20.1z"/>
<path class="st0" d="M14.9,18.1c-0.2-0.5-0.8-0.8-1.3-0.5c0,0,0,0,0,0l-6,2.5c-0.5,0.2-0.8,0.8-0.5,1.3c0.2,0.5,0.8,0.8,1.3,0.5
	l6-2.5C14.9,19.2,15.1,18.6,14.9,18.1C14.9,18.1,14.9,18.1,14.9,18.1z"/>
<path class="st0" d="M15,15c0-0.6-0.4-1-1-1H4c-0.6,0-1,0.4-1,1s0.4,1,1,1h10C14.6,16,15,15.6,15,15z"/>
<path class="st0" d="M7.6,9.9l6,2.5c0.5,0.2,1.1,0,1.3-0.5c0.2-0.5,0-1.1-0.5-1.3l-6-2.5c-0.5-0.2-1.1,0-1.3,0.5
	C6.9,9.1,7.1,9.7,7.6,9.9z"/>
</svg>
