<svg id="Layer_1" data-name="Layer 1" xmlns="http://www.w3.org/2000/svg" width="48" height="48" viewBox="0 0 48 48"><title>opsbridge-blue--48</title><path d="M37.75,22.66l0,0h0V21H10v2h.51C15.86,29.66,17,38.07,17,44v4h2V44c0-5.89-1.08-14.12-6-21H35c-4.9,6.88-6,15.11-6,21v4h2V44c0-5.93,1.14-14.34,6.49-21h.26Z" fill="#0079ef"/><rect x="23" y="2" width="2" height="4" fill="#0079ef"/><rect x="18" y="8" width="12" height="2" fill="#0079ef"/><polygon points="16.53 19 15.28 14 32.72 14 31.47 19 33.53 19 35.28 12 12.72 12 14.47 19 16.53 19" fill="#0079ef"/></svg>