<svg xmlns="http://www.w3.org/2000/svg" viewBox="0 0 17.38 12.77"><defs><style>.cls-1{fill:#0078ef;}</style></defs><title>Screen Code</title><g id="Layer_2" data-name="Layer 2"><g id="NEW_icons" data-name="NEW icons"><path class="cls-1" d="M0,12.44a.33.33,0,0,0,.33.33H17.05a.33.33,0,0,0,.33-.33V3.54H0ZM11.65,5.81a.33.33,0,1,1,.45-.48l2.55,2.38a.33.33,0,0,1,0,.46L12.12,11a.33.33,0,0,1-.48-.44L14,8ZM6.95,10.56,9.8,5.45a.33.33,0,1,1,.57.32L7.52,10.88a.33.33,0,1,1-.57-.32ZM2.72,7.71,5.28,5.33a.33.33,0,1,1,.45.48L3.41,8l2.34,2.55a.33.33,0,0,1-.48.44L2.71,8.17A.33.33,0,0,1,2.72,7.71Z"/><path class="cls-1" d="M17.05,0H.33A.33.33,0,0,0,0,.33V2.88H17.38V.33A.33.33,0,0,0,17.05,0ZM2.7,1.84a.36.36,0,1,1,.36-.36A.36.36,0,0,1,2.7,1.84Zm1.44,0a.36.36,0,1,1,.36-.36A.36.36,0,0,1,4.14,1.84Zm1.44,0a.36.36,0,1,1,.36-.36A.36.36,0,0,1,5.58,1.84Z"/></g></g></svg>
