<?xml version="1.0" encoding="utf-8"?>
<!-- Generator: Adobe Illustrator 21.1.0, SVG Export Plug-In . SVG Version: 6.00 Build 0)  -->
<svg version="1.1" id="Layer_1" xmlns="http://www.w3.org/2000/svg" xmlns:xlink="http://www.w3.org/1999/xlink" x="0px" y="0px"
	 viewBox="0 0 48 48" enable-background="new 0 0 48 48" xml:space="preserve">
<g>
	<g>
		<g>
			<g>
				<path fill="#0078F0" d="M47.095,42H0.905C0.406,42,0,41.617,0,41.146v-33C0,7.674,0.501,7,1,7h46c0.499,0,1,0.674,1,1.146v33
					C48,41.617,47.594,42,47.095,42z M2,40h44V9H2V40z"/>
			</g>
		</g>
	</g>
	<g>
		<g>
			<g>
				<path fill="#0078F0" d="M47.095,17.898H0.905C0.406,17.898,0,17.516,0,17.044c0-0.472,0.406-0.854,0.905-0.854h46.19
					c0.499,0,0.905,0.383,0.905,0.854C48,17.516,47.594,17.898,47.095,17.898z"/>
			</g>
		</g>
	</g>
	<g>
		<g>
			<g>
				<path fill="#0078F0" d="M15.279,37.552c-0.244,0-0.488-0.092-0.666-0.275l-7.057-7.282c-0.336-0.347-0.314-0.885,0.05-1.204
					l7.057-6.214c0.364-0.326,0.939-0.301,1.278,0.041c0.34,0.347,0.32,0.888-0.046,1.209l-6.4,5.637l6.45,6.655
					c0.338,0.349,0.313,0.89-0.055,1.209C15.716,37.478,15.497,37.552,15.279,37.552z"/>
			</g>
		</g>
	</g>
	<g>
		<g>
			<g>
				<path fill="#0078F0" d="M32.887,37.552c-0.218,0-0.437-0.074-0.611-0.224c-0.368-0.319-0.394-0.86-0.055-1.209l6.45-6.655
					l-6.4-5.637c-0.365-0.321-0.386-0.862-0.046-1.209c0.34-0.342,0.914-0.367,1.278-0.041l7.057,6.214
					c0.364,0.319,0.386,0.857,0.05,1.204l-7.057,7.282C33.375,37.46,33.131,37.552,32.887,37.552z"/>
			</g>
		</g>
	</g>
	<g>
		<g>
			<g>
				<path fill="#0078F0" d="M20.057,37.513c-0.148,0-0.301-0.033-0.44-0.107c-0.437-0.232-0.592-0.752-0.348-1.166l7.884-13.338
					c0.24-0.413,0.792-0.564,1.23-0.329c0.437,0.232,0.592,0.752,0.348,1.166l-7.884,13.338
					C20.683,37.358,20.374,37.513,20.057,37.513z"/>
			</g>
		</g>
	</g>
	<g>
		<g>
			<g>
				<g>
					<ellipse fill="#0078F0" cx="5.518" cy="13.5" rx="0.995" ry="0.941"/>
				</g>
			</g>
		</g>
		<g>
			<g>
				<g>
					<ellipse fill="#0078F0" cx="9.5" cy="13.5" rx="0.995" ry="0.941"/>
				</g>
			</g>
		</g>
		<g>
			<g>
				<g>
					<ellipse fill="#0078F0" cx="13.482" cy="13.5" rx="0.995" ry="0.941"/>
				</g>
			</g>
		</g>
	</g>
</g>
</svg>
