<svg xmlns="http://www.w3.org/2000/svg" viewBox="0 0 11.52 22.42"><defs><style>.cls-1{fill:#0078ef;}</style></defs><title>Asset 275</title><g id="Layer_2" data-name="Layer 2"><g id="NEW_icons" data-name="NEW icons"><path class="cls-1" d="M11.37,18l0,0h0a1.92,1.92,0,0,1-1.43.59H9.82a2.16,2.16,0,0,1-1.65-.67V12a2.17,2.17,0,0,1,.06-.57A4.19,4.19,0,0,1,9,10.55L9,10.48V4.76L8.05,3,9.11,0l1.37,0,1,3-1,1.72v5.74l.07.07a4.24,4.24,0,0,1,.71.92,2.07,2.07,0,0,1,.07.52ZM1.44,3.86l.34,2.44,1.45.43,1.28-.95L4.17,3.46l0,0A3.09,3.09,0,0,1,6.31,6a2.57,2.57,0,0,1-.79,1.85,4.49,4.49,0,0,0-1.19,3.23c0,.54,0,1.27.07,2.13.06,1.45.13,3.25.13,4.85v.11l.09.08a2.38,2.38,0,1,1-3.39.25,2.35,2.35,0,0,1,.48-.42L1.81,18v-.13c0-1.63.25-6.49.23-7A3.28,3.28,0,0,0,.67,8,2.34,2.34,0,0,1,0,6.54,3.4,3.4,0,0,1,1.38,3.83Zm.67,15.47L1.9,20.5l.91.77,1.12-.4.21-1.17-.91-.77Z"/></g></g></svg>
